<?xml version="1.0" standalone="no"?>
<!DOCTYPE svg PUBLIC "-//W3C//DTD SVG 20010904//EN"
 "http://www.w3.org/TR/2001/REC-SVG-20010904/DTD/svg10.dtd">
<svg version="1.0" xmlns="http://www.w3.org/2000/svg"
 width="680.000000pt" height="438.000000pt" viewBox="0 0 680.000000 438.000000"
 preserveAspectRatio="xMidYMid meet">
<metadata>
Created by potrace 1.15, written by Peter Selinger 2001-2017
</metadata>
<g transform="translate(0.000000,438.000000) scale(0.100000,-0.100000)"
fill="#000000" stroke="none">
<path d="M188 3275 l-3 -985 308 0 c354 0 330 -11 223 104 -60 65 -65 74 -80
145 -16 77 -57 229 -71 266 -7 17 -5 17 20 -5 50 -45 129 -131 168 -184 22
-28 82 -96 136 -151 53 -55 105 -117 116 -137 l20 -38 115 0 c63 0 110 4 104
8 -6 4 -49 59 -97 122 -47 63 -107 137 -132 164 -25 27 -45 53 -45 58 0 5 -4
7 -9 4 -5 -4 -29 17 -54 45 -44 51 -45 51 -70 34 -49 -31 -64 -15 -72 79 l-7
83 -47 36 c-75 57 -166 159 -163 182 2 17 19 58 29 74 4 6 143 -102 143 -111
0 -4 7 -8 15 -8 8 0 15 -4 15 -10 0 -5 6 -10 13 -10 6 0 -1 12 -18 26 -104 90
-135 121 -135 135 0 9 -7 19 -15 23 -9 3 -15 18 -15 35 0 16 -5 33 -11 37 -6
3 -9 20 -6 38 3 17 3 25 0 18 -3 -9 -14 0 -31 25 -14 21 -32 44 -39 51 -7 7
-13 20 -13 28 0 8 -5 23 -12 33 -9 15 -8 22 5 36 21 21 21 23 0 21 -13 -1 -19
8 -21 33 -2 18 1 38 6 43 12 12 57 -25 57 -48 0 -9 6 -19 13 -21 7 -3 12 4 12
17 0 12 14 35 31 51 24 22 30 35 25 53 -7 29 8 74 32 93 15 11 13 12 -11 3
-22 -8 -29 -7 -33 5 -9 23 0 38 26 42 13 2 27 7 30 12 3 4 15 13 28 20 12 6
22 21 22 31 0 11 4 20 9 20 16 0 23 38 11 60 -7 13 -7 20 0 20 5 0 10 -7 10
-15 0 -25 18 -17 35 15 9 17 24 30 34 30 11 0 21 9 24 21 5 18 11 20 33 15 18
-5 30 -3 35 6 7 10 9 9 9 -4 0 -10 4 -18 9 -18 4 0 20 -11 35 -25 14 -13 26
-20 26 -16 0 11 98 8 123 -3 9 -5 24 -6 32 -2 8 3 15 1 15 -4 0 -6 -4 -10 -10
-10 -5 0 -10 -7 -10 -16 0 -13 3 -14 14 -5 10 9 17 6 30 -13 14 -23 14 -25 -2
-29 -16 -4 -16 -5 1 -6 13 -1 17 -10 17 -42 0 -28 6 -46 18 -55 12 -10 13 -13
3 -14 -10 0 -7 -6 7 -19 12 -10 22 -21 22 -24 0 -2 -20 -8 -44 -11 -24 -4 -63
-16 -85 -27 -23 -11 -46 -17 -50 -14 -12 7 -2 -28 20 -72 19 -37 57 -63 93
-63 38 0 83 -35 90 -72 15 -71 18 -128 7 -128 -7 0 -11 14 -9 35 1 19 -1 37
-5 41 -4 4 -7 -17 -7 -47 0 -30 -3 -64 -6 -76 -4 -13 -2 -23 4 -23 6 0 13 8
16 18 2 9 2 -1 -1 -23 -10 -70 -19 -86 -45 -76 -12 4 -26 15 -31 23 -12 19 -1
68 16 68 7 0 18 9 25 20 7 12 8 20 2 20 -5 0 -10 8 -10 18 0 10 -24 43 -54 75
-51 53 -93 136 -78 153 4 4 0 5 -8 2 -21 -6 -25 -62 -6 -78 9 -7 16 -18 16
-25 0 -7 11 -20 25 -29 14 -9 23 -21 20 -26 -10 -16 -22 -11 -28 10 -3 13 -11
18 -20 14 -19 -7 -28 -39 -14 -53 6 -6 7 -14 3 -18 -4 -4 -10 -3 -14 3 -4 6
-22 11 -41 12 -18 0 -36 4 -39 7 -12 11 22 24 50 18 23 -4 28 -2 28 13 0 16
-2 17 -10 4 -7 -12 -12 -12 -22 -2 -18 18 -58 15 -58 -4 0 -20 -24 -13 -28 8
-2 9 9 20 25 27 27 11 62 66 49 78 -3 3 -1 12 5 20 9 10 7 13 -9 13 -15 0 -20
-5 -16 -15 4 -8 1 -15 -5 -15 -6 0 -11 -6 -11 -14 0 -7 -16 -26 -35 -40 -19
-15 -35 -35 -35 -44 1 -23 24 -52 41 -52 16 0 -40 -49 -57 -50 -15 0 -55 -58
-45 -64 5 -3 20 -6 32 -6 13 0 62 -2 109 -6 47 -3 101 -6 120 -6 19 0 29 -2
23 -5 -7 -3 -13 -21 -13 -43 0 -42 22 -94 35 -82 5 4 -4 -7 -21 -24 -19 -21
-32 -28 -36 -20 -5 7 -8 5 -8 -6 0 -10 -9 -22 -19 -28 -20 -10 -18 -50 3 -50
6 0 4 -4 -4 -10 -8 -5 -11 -12 -7 -16 4 -4 0 -16 -10 -26 -9 -11 -11 -18 -5
-18 7 0 12 4 12 8 0 13 82 94 88 87 4 -4 7 -14 7 -23 0 -10 8 -17 20 -17 17 0
21 -9 28 -70 4 -38 16 -88 26 -110 10 -22 24 -67 31 -100 6 -33 27 -125 45
-205 19 -80 37 -162 40 -182 l7 -38 134 0 134 0 0 985 0 985 -705 0 -705 0 -2
-985z"/>
<path d="M1840 3275 l0 -985 520 0 c340 0 520 3 520 10 0 6 -13 10 -29 10 -54
0 -90 11 -84 27 3 8 12 12 19 9 8 -3 14 -1 14 4 0 5 -8 11 -18 14 -27 9 -60
83 -63 139 -2 35 -6 46 -16 42 -8 -3 -11 0 -8 6 4 5 -17 36 -47 67 -29 32 -73
81 -98 110 -25 28 -48 52 -52 52 -16 0 -7 -17 22 -47 25 -25 27 -32 14 -37
-22 -8 -24 -8 -18 7 3 8 -10 21 -30 32 -20 11 -38 25 -40 32 -7 17 -1 16 18
-3 14 -14 16 -14 16 0 0 17 -38 42 -57 38 -7 -2 -10 3 -7 12 3 8 1 17 -5 21
-6 3 -11 0 -11 -7 0 -7 -8 -1 -17 12 -22 33 -102 110 -113 110 -19 0 3 -30 27
-36 13 -4 22 -11 20 -18 -2 -6 5 -20 17 -31 23 -22 56 -70 56 -81 0 -4 -16 9
-35 29 -31 32 -55 46 -55 33 0 -12 95 -95 98 -86 5 15 19 12 25 -4 4 -10 1
-13 -9 -9 -27 10 -14 -12 31 -50 25 -21 45 -44 45 -49 0 -6 -30 19 -67 55 -38
36 -79 76 -93 87 -40 34 -93 85 -122 116 -14 16 -69 71 -122 123 -53 52 -96
99 -96 104 0 6 9 0 19 -12 10 -12 33 -23 50 -26 37 -4 38 -2 10 26 -27 27 -21
31 24 18 33 -9 52 -29 27 -29 -5 0 -10 5 -10 12 0 6 -3 8 -7 4 -4 -4 3 -16 17
-26 l25 -19 -22 -16 c-19 -14 -21 -19 -10 -35 6 -11 16 -20 21 -20 5 0 15 -8
22 -17 7 -10 14 -13 14 -6 0 6 -11 20 -25 31 l-24 19 21 23 c21 22 21 23 3 36
-16 12 -16 14 -3 14 9 0 20 -4 23 -10 3 -5 11 -10 16 -10 6 0 -11 18 -38 41
-26 22 -63 54 -82 72 -19 18 -44 38 -55 45 -18 11 -14 12 34 10 32 -1 53 2 50
7 -3 6 -9 9 -13 7 -5 -1 -6 2 -2 8 12 19 51 10 104 -25 29 -19 55 -35 58 -35
15 0 -31 39 -53 44 -13 4 -24 11 -24 17 0 6 8 8 18 5 9 -2 27 -7 40 -11 12 -4
20 -11 17 -16 -4 -5 3 -9 15 -9 13 0 19 4 14 11 -5 8 -1 8 14 0 35 -19 46 -12
18 10 -33 26 -26 38 9 15 24 -16 32 -12 17 10 -4 6 -17 16 -29 23 -29 15 -53
62 -46 89 7 27 30 29 38 3 7 -22 45 -59 45 -43 0 6 -5 14 -11 17 -6 4 -8 14
-5 22 3 8 1 11 -4 8 -6 -3 -7 1 -4 10 5 12 9 13 20 4 11 -9 14 -7 14 12 0 13
-7 32 -15 42 -7 11 -11 26 -8 34 3 8 0 18 -7 23 -9 5 -9 13 -2 26 7 13 7 26 1
37 -7 12 -6 17 2 17 6 0 9 7 5 15 -3 8 -1 15 4 15 6 0 10 -30 10 -68 0 -74 27
-163 59 -195 17 -18 17 -13 -5 54 -20 60 -24 91 -22 162 2 48 0 87 -4 87 -5 0
-8 -5 -8 -11 0 -5 -5 -7 -11 -3 -8 4 -7 9 2 15 12 7 12 10 1 18 -9 6 -11 19
-7 45 5 22 3 36 -3 36 -13 0 -23 -26 -16 -44 3 -8 -3 -20 -14 -27 -20 -15 -35
-56 -23 -64 15 -9 11 -83 -4 -89 -19 -7 -39 38 -32 71 2 12 0 24 -4 25 -10 4
-29 120 -22 132 3 5 10 1 15 -8 12 -21 28 -12 21 13 -6 25 23 34 82 26 l45 -7
-6 -39 c-14 -84 22 -116 118 -107 42 4 57 11 80 37 37 41 58 41 57 -1 0 -18 2
-45 4 -61 4 -23 1 -28 -21 -34 -25 -6 -25 -6 -4 -14 12 -5 22 -15 22 -24 0 -8
7 -15 15 -15 8 0 15 -7 15 -15 0 -11 -12 -15 -49 -15 -28 0 -53 5 -56 10 -3 6
-22 10 -41 10 -55 0 -37 -23 32 -40 60 -15 114 -56 114 -86 0 -8 -4 -13 -9
-10 -5 4 -7 -3 -4 -14 7 -26 -37 -43 -89 -35 -39 7 -45 1 -28 -25 9 -13 11
-13 20 0 7 11 10 11 10 2 0 -7 5 -10 10 -7 12 7 12 -24 0 -85 -5 -27 -5 -46 1
-48 5 -2 7 -8 3 -13 -3 -5 0 -9 6 -9 18 0 70 60 70 80 0 11 4 21 9 24 4 3 11
-47 14 -112 13 -232 17 -262 49 -306 28 -40 132 -195 190 -285 15 -25 28 -49
28 -55 0 -6 -4 -4 -10 4 -14 23 -21 7 -11 -28 5 -17 11 -53 12 -79 1 -27 7
-58 12 -69 6 -14 5 -29 -2 -43 l-12 -21 163 0 163 0 -3 985 -2 985 -705 0
-705 0 0 -985z m767 863 c-2 -39 0 -43 23 -46 50 -7 75 -52 29 -52 -12 0 -19
-7 -19 -20 0 -13 5 -17 14 -14 8 3 19 -3 26 -15 6 -12 17 -21 25 -21 9 0 15
-10 15 -24 0 -13 7 -26 15 -30 9 -3 15 -18 15 -35 0 -16 6 -31 13 -34 21 -7 2
-17 -51 -26 -27 -4 -62 -18 -78 -30 -28 -22 -29 -23 -32 -3 -7 48 -93 78 -192
67 -62 -7 -126 8 -114 26 3 5 2 9 -1 9 -9 0 -47 -48 -57 -69 -6 -14 -7 -14 -7
1 -1 28 19 71 39 85 11 8 20 22 20 31 -1 15 -2 15 -14 -1 -8 -10 -17 -14 -20
-8 -9 13 9 51 42 89 23 27 33 33 57 29 29 -4 29 -4 7 -12 -16 -5 -20 -10 -12
-15 9 -6 9 -12 -1 -27 -9 -15 -10 -31 -2 -61 9 -33 8 -42 -3 -44 -8 -2 -3 -8
12 -15 22 -10 25 -10 20 3 -3 9 1 14 13 14 14 0 17 6 13 25 -2 15 2 33 10 43
8 9 17 24 20 32 9 22 120 78 126 62 2 -7 13 -12 24 -12 26 0 18 24 -10 28 -18
3 -20 7 -11 30 34 93 49 105 46 40z"/>
<path d="M3540 4250 c-11 -7 -11 -10 -2 -10 7 0 11 -4 8 -9 -3 -5 1 -76 10
-157 9 -82 19 -189 24 -239 20 -226 75 -446 147 -592 28 -57 39 -70 52 -64 72
33 89 42 110 65 25 26 25 27 7 57 -14 24 -16 33 -6 39 7 4 11 19 8 32 -2 13 1
30 9 36 10 10 13 10 13 -3 0 -8 5 -15 10 -15 6 0 10 -11 10 -25 0 -19 5 -25
17 -23 11 2 19 -6 23 -22 4 -17 14 -26 30 -28 22 -2 23 -1 9 10 -9 7 -14 19
-12 26 6 17 33 15 33 -3 0 -10 10 -15 30 -15 20 0 30 -5 30 -15 0 -8 -5 -15
-11 -15 -5 0 -8 -4 -4 -10 3 -5 12 -7 20 -4 10 4 12 0 8 -15 -3 -12 -9 -21
-14 -21 -4 0 -10 -12 -12 -27 -4 -25 -4 -25 -6 6 -1 28 -3 32 -16 21 -8 -7
-15 -18 -15 -26 0 -19 -19 -27 -34 -15 -7 6 -16 8 -19 4 -9 -9 -47 27 -47 44
0 27 -23 7 -37 -33 -27 -73 16 -236 105 -409 15 -27 27 -66 28 -85 0 -19 -1
-29 -3 -22 -6 17 -68 15 -83 -3 -7 -8 -15 -15 -19 -15 -8 0 -58 134 -112 304
-36 114 -43 127 -56 113 -18 -18 -21 -141 -5 -184 6 -15 14 -46 18 -68 7 -37
7 -38 15 -15 7 19 7 17 4 -12 -6 -42 3 -87 40 -183 14 -38 28 -77 30 -85 2 -8
8 -28 15 -45 6 -16 11 -31 10 -33 -1 -2 3 -15 9 -30 9 -21 19 -28 43 -30 17
-2 37 -7 44 -13 9 -8 18 -5 31 10 9 12 23 21 31 21 7 0 24 7 37 16 19 12 23
22 19 40 -4 17 -2 24 8 24 7 0 37 -47 67 -105 l53 -105 344 0 344 0 0 405 c0
284 -3 405 -11 405 -6 0 -38 16 -71 35 -33 20 -121 58 -194 85 -73 27 -145 55
-161 63 -31 16 -84 71 -102 106 -7 12 -16 19 -22 16 -13 -9 -11 29 2 42 14 14
57 114 71 167 9 33 9 40 -5 48 -12 6 -17 23 -17 51 -1 23 -8 71 -17 107 -21
86 -20 140 5 290 12 69 22 131 22 138 0 15 -866 18 -890 2z m559 -163 c-13 -5
-31 -13 -39 -18 -32 -20 -42 -21 -50 -10 -6 10 -12 10 -29 0 -11 -8 -21 -17
-21 -21 0 -4 -9 -16 -20 -26 -20 -19 -20 -19 5 -30 14 -6 25 -16 25 -22 0 -12
-23 -13 -35 -1 -12 11 -55 -4 -55 -19 0 -5 6 -10 13 -10 6 0 -4 -8 -23 -17
-46 -22 -45 -20 -30 -38 13 -16 7 -30 -13 -30 -14 0 -24 -42 -26 -110 -1 -44
-3 -48 -15 -32 -19 25 -10 178 11 192 19 12 33 27 88 93 63 75 92 95 159 107
64 13 96 8 55 -8z m-145 -195 c3 -5 51 -9 107 -10 56 -1 104 -4 107 -7 11 -11
13 -50 3 -70 -5 -11 -12 -30 -14 -42 -4 -20 -3 -21 15 -12 14 8 23 8 31 0 8
-8 6 -11 -8 -11 -26 -1 -134 -37 -151 -51 -10 -8 -18 -8 -27 -1 -19 16 -113
22 -131 9 -9 -7 -19 -28 -22 -48 -5 -31 -3 -37 15 -42 12 -3 20 -11 19 -19 -2
-9 9 -13 40 -11 61 2 69 7 83 52 20 69 39 52 39 -34 0 -81 0 -80 -60 -75 -32
3 -37 7 -22 22 7 7 12 17 12 22 0 6 -16 -7 -35 -27 -19 -20 -35 -34 -35 -31 0
19 -66 -39 -71 -63 -6 -24 -7 -21 -8 15 0 24 2 41 7 39 12 -8 13 66 0 90 -8
17 -8 37 2 80 6 32 11 73 11 91 -2 47 44 142 69 142 10 0 21 -4 24 -8z m416
-517 c0 -9 -8 -32 -19 -53 -10 -20 -37 -89 -61 -152 -23 -63 -54 -144 -69
-180 -16 -36 -32 -74 -36 -85 -7 -18 -8 -17 -18 10 -7 21 -7 30 2 33 6 2 11
10 11 17 0 15 -68 132 -81 141 -18 10 -8 22 23 28 35 7 118 46 118 56 0 3 8
15 18 26 23 27 48 69 75 126 22 48 37 61 37 33z"/>
<path d="M5573 4253 c3 -5 8 -60 12 -123 4 -63 9 -118 11 -122 2 -4 0 -9 -5
-12 -10 -7 3 -74 17 -88 13 -13 32 -2 32 18 0 8 4 14 9 14 5 0 12 -26 15 -57
2 -32 7 -67 9 -78 3 -11 5 -25 6 -32 0 -6 7 -18 15 -25 8 -8 16 -37 19 -64 10
-103 30 -154 84 -216 31 -36 32 -39 16 -58 -9 -10 -41 -29 -70 -41 -29 -12
-51 -24 -49 -28 2 -3 -11 -7 -29 -8 l-32 -1 -7 66 c-3 37 -6 84 -6 104 0 20
-5 38 -11 40 -7 2 -12 29 -12 66 0 35 -4 65 -9 68 -4 3 -8 15 -8 28 0 12 -5
27 -11 33 -6 6 -15 73 -20 149 -5 77 -11 151 -13 167 -2 15 0 27 5 27 18 0
-12 40 -41 55 -17 9 -30 22 -30 30 0 7 -10 15 -22 17 -16 2 -22 9 -20 21 2 9
-2 17 -8 17 -5 0 -9 -5 -7 -11 1 -8 -22 -13 -68 -14 -38 -1 -83 -6 -99 -10
-29 -8 -29 -8 -22 29 7 39 -8 51 -18 14 -12 -45 -7 -423 6 -436 9 -9 9 -12 0
-12 -9 0 -12 -87 -12 -360 l0 -360 30 0 c18 0 30 -5 30 -13 0 -23 -11 -27 -36
-10 -15 9 -24 11 -24 4 0 -6 7 -11 15 -11 10 0 15 -10 15 -34 0 -19 -7 -41
-15 -50 -13 -12 -15 -64 -15 -335 l0 -321 708 0 707 0 0 476 0 475 -100 51
c-129 65 -173 97 -219 159 -33 44 -37 56 -31 86 3 20 13 42 21 50 8 8 14 27
14 43 0 16 5 32 10 35 6 3 10 25 10 48 1 51 19 77 54 77 14 0 26 3 26 8 0 4
18 7 40 7 22 0 40 3 40 7 0 5 9 8 20 8 11 0 20 -4 20 -10 0 -14 37 -12 43 3 3
6 6 1 7 -13 l2 -25 8 25 c7 21 8 18 10 -20 0 -25 5 -63 9 -85 6 -25 9 74 10
263 l1 302 -521 0 c-286 0 -518 -3 -516 -7z m-169 -286 c33 -57 44 -103 56
-224 7 -65 13 -129 15 -143 1 -14 12 -58 24 -97 26 -90 29 -208 5 -217 -28
-11 -31 -7 -33 52 -1 31 -7 86 -13 122 -5 36 -12 79 -14 95 -6 54 -41 189 -69
265 -33 91 -33 105 -3 131 15 14 17 19 7 16 -13 -4 -15 -1 -12 14 7 27 15 24
37 -14z m845 -565 c-6 -20 -41 -84 -77 -142 -36 -57 -85 -140 -108 -184 -37
-69 -43 -76 -48 -55 -14 70 -13 78 15 105 16 15 29 32 29 37 0 12 -51 62 -71
70 -11 4 -8 11 11 27 14 11 36 29 49 40 12 11 60 47 106 81 46 33 87 68 91 77
14 32 17 -14 3 -56z m-589 -107 c0 -8 5 -15 11 -15 5 0 8 -4 4 -9 -3 -5 -1
-12 5 -16 13 -8 13 11 0 35 -8 16 -7 18 4 14 8 -3 17 -26 21 -52 10 -77 111
-308 180 -416 l35 -54 -26 -46 c-14 -25 -30 -43 -36 -40 -5 4 0 16 12 29 32
34 17 48 -25 24 -19 -12 -35 -26 -35 -32 0 -48 -115 159 -155 278 -24 70 -25
79 -11 94 9 10 16 23 16 29 0 7 5 12 10 12 6 0 10 4 10 10 0 16 -29 -1 -35
-21 -4 -10 -10 -19 -15 -19 -13 0 -42 104 -39 138 2 15 0 32 -4 39 -9 14 19
32 51 33 13 0 22 -6 22 -15z m420 -802 c14 -20 30 -41 36 -47 21 -22 105 -146
98 -146 -4 0 -16 8 -27 18 -19 16 -20 16 -14 -1 6 -16 0 -17 -57 -16 -51 1
-66 6 -77 22 -8 11 -18 25 -24 31 -5 6 -27 32 -48 58 -21 26 -45 55 -54 64
-16 15 -16 16 4 10 12 -4 24 -2 28 4 3 5 16 10 28 10 12 0 33 7 47 14 34 19
32 20 60 -21z"/>
<path d="M744 3725 c-42 -25 -73 -82 -50 -91 24 -9 76 24 76 48 0 17 3 19 12
10 7 -7 17 -8 29 -1 12 6 40 6 81 -1 88 -14 98 -13 98 10 0 13 -5 18 -15 14
-8 -4 -21 -1 -29 5 -7 6 -16 8 -19 4 -4 -3 -12 -1 -19 4 -7 6 -39 13 -71 15
-46 4 -64 1 -93 -17z"/>
<path d="M3655 3140 c-86 -26 -129 -44 -137 -55 -4 -5 -8 -65 -8 -132 l0 -123
40 -26 c58 -39 109 -136 80 -154 -6 -4 -8 -19 -4 -37 5 -24 10 -30 23 -25 14
5 14 4 -1 -12 -10 -9 -18 -21 -18 -26 0 -15 22 -23 30 -10 5 8 10 2 14 -15 4
-16 3 -32 -3 -38 -6 -6 -11 -20 -11 -31 0 -17 -2 -18 -10 -6 -14 22 -22 6 -11
-21 5 -13 10 -18 10 -11 1 17 21 15 21 -3 0 -8 -4 -15 -8 -15 -5 0 -14 -10
-20 -22 -9 -20 -11 -20 -11 -5 -2 39 -25 8 -27 -36 -3 -52 5 -58 39 -27 14 14
23 17 26 9 2 -6 -3 -15 -10 -20 -8 -5 79 -9 209 -9 l222 0 -21 43 c-12 23 -23
43 -24 45 -1 1 -14 -2 -27 -7 -19 -7 -31 -6 -48 6 -13 9 -20 11 -16 5 4 -7 2
-12 -3 -12 -6 0 -11 5 -11 10 0 6 -4 10 -10 10 -5 0 0 -18 11 -40 12 -23 19
-43 16 -46 -10 -10 -39 57 -90 206 -101 298 -140 462 -136 578 1 36 -2 67 -7
68 -5 1 -36 -6 -69 -16z"/>
<path d="M3590 2613 c0 -15 -2 -16 -11 -3 -7 11 -8 -1 -4 -40 6 -50 4 -57 -18
-78 -17 -16 -23 -30 -19 -47 2 -15 0 -25 -7 -25 -7 0 -11 -24 -11 -65 l0 -65
33 1 c17 1 24 3 15 6 -22 5 -22 11 -3 57 9 20 20 34 25 31 12 -7 32 31 28 53
-1 9 1 22 5 29 4 6 3 14 -3 18 -5 3 -10 15 -10 26 0 11 5 17 10 14 18 -11 11
8 -12 33 -13 14 -17 22 -10 18 15 -9 17 40 2 49 -5 3 -10 -2 -10 -12z"/>
<path d="M190 1155 l0 -1030 693 2 c380 1 697 2 702 2 14 1 14 2051 0 2051 -5
0 -322 1 -703 2 l-692 3 0 -1030z m776 710 c-3 -10 1 -15 13 -15 19 0 94 -29
77 -30 -5 0 -1 -9 9 -20 20 -22 14 -26 -15 -10 -13 7 -21 7 -26 -1 -9 -15 16
-30 39 -25 24 6 49 -3 41 -15 -3 -5 -1 -9 5 -9 5 0 12 12 14 28 3 19 4 15 6
-15 0 -23 6 -43 13 -45 6 -2 13 -31 16 -64 3 -48 -1 -70 -19 -109 -14 -30 -22
-65 -21 -90 2 -47 -30 -126 -36 -87 -2 12 -7 22 -11 22 -16 0 -20 -13 -9 -33
9 -17 8 -19 -7 -13 -11 4 -25 0 -37 -10 -10 -10 -21 -14 -24 -11 -4 3 -16 1
-27 -5 -15 -8 -35 -7 -75 3 -42 10 -56 18 -63 38 -6 13 -17 29 -25 36 -8 6
-18 31 -21 55 -6 49 -72 198 -74 165 0 -11 -3 -15 -5 -9 -3 6 0 22 5 35 7 16
10 19 10 7 1 -9 5 -19 11 -23 8 -5 48 12 60 26 3 3 20 2 39 -3 26 -7 32 -13
28 -29 -6 -21 8 -26 17 -6 3 6 3 1 0 -11 -3 -13 -15 -33 -25 -43 -24 -24 -26
-61 -3 -52 9 3 20 0 25 -8 6 -10 9 -10 9 -2 0 9 7 10 23 4 30 -11 47 -4 47 21
0 11 -5 18 -12 15 -13 -4 -37 20 -38 36 0 4 8 7 18 5 13 -2 16 3 14 20 -2 15
2 22 13 22 10 0 15 -7 13 -17 -1 -10 1 -24 5 -30 12 -19 30 -16 23 3 -5 12 -2
15 11 10 16 -5 16 -5 -1 8 -10 8 -15 19 -11 25 9 16 25 13 25 -4 0 -13 3 -13
20 -3 12 8 15 15 9 19 -8 4 -8 9 0 14 7 4 18 1 26 -5 11 -9 15 -9 15 -1 0 6 7
11 15 11 9 0 12 -6 9 -17 -5 -14 -4 -15 4 -4 12 17 5 41 -17 58 -9 7 -12 13
-7 13 6 0 20 -10 33 -22 l23 -21 0 24 c0 40 -27 54 -95 51 -64 -3 -88 -16 -80
-41 7 -23 -34 -49 -46 -29 -5 7 -9 21 -9 31 0 33 -20 42 -81 39 -38 -3 -59 0
-59 7 0 6 5 11 10 11 6 0 10 17 10 38 0 42 19 55 102 67 35 4 46 10 41 21 -3
9 2 14 17 14 16 0 20 -4 16 -15z m-200 -606 c26 -24 154 -73 154 -59 0 6 -4
10 -8 10 -5 0 -16 6 -25 13 -15 10 -10 11 30 9 27 -2 67 3 91 11 42 15 43 15
36 -7 -5 -17 -2 -16 20 9 14 17 26 27 26 22 0 -7 -49 -86 -60 -97 -25 -24 -58
-80 -51 -85 6 -3 15 3 20 13 6 11 25 37 43 59 18 22 38 49 44 59 16 27 25 14
31 -48 3 -29 11 -60 19 -69 8 -8 14 -25 14 -37 0 -13 9 -55 19 -95 53 -197 54
-478 2 -654 -11 -40 -18 -79 -15 -88 4 -8 3 -31 0 -50 l-7 -35 -74 0 c-41 0
-77 5 -80 10 -4 6 -12 9 -18 8 -16 -4 -87 39 -87 52 0 5 5 10 10 10 6 0 10 -4
10 -10 0 -5 7 -10 15 -10 11 0 8 11 -13 47 -28 48 -30 83 -7 136 4 10 3 17 -4
17 -6 0 -11 -6 -12 -12 0 -7 -7 1 -14 17 -8 17 -14 24 -15 18 0 -7 -9 -13 -20
-13 -17 0 -19 6 -17 63 1 34 5 64 8 67 3 3 -1 16 -9 30 -13 23 -13 23 -9 3 3
-13 1 -23 -3 -23 -5 0 -4 -15 1 -32 12 -42 11 -58 -1 -58 -5 0 -10 10 -10 23
0 12 -7 54 -16 92 -8 39 -17 84 -19 102 -2 17 -8 39 -13 50 -25 49 -67 293
-50 293 4 0 8 -4 8 -10 0 -5 3 -9 8 -8 18 5 50 -14 55 -32 4 -17 14 -20 55
-20 31 0 53 -5 56 -12 3 -7 4 -4 3 7 -2 17 -9 20 -51 17 -45 -4 -47 -2 -41 17
4 13 2 21 -5 21 -5 0 -8 10 -6 23 3 12 7 33 10 47 4 21 -3 31 -39 58 -44 34
-57 61 -44 97 4 11 10 28 13 38 7 22 15 22 42 -4z"/>
<path d="M1840 1128 l0 -1008 360 0 c198 0 360 4 360 8 0 4 -5 13 -12 20 -8 8
-5 13 13 20 13 6 33 19 43 31 11 11 23 21 27 21 4 0 24 -23 44 -50 l37 -50
269 0 269 0 0 1008 0 1007 -705 0 -705 1 0 -1008z m802 688 c5 3 8 1 8 -5 0
-6 6 -8 14 -5 15 6 56 -28 56 -46 0 -6 11 -15 25 -20 26 -10 28 -18 16 -60 -5
-19 -2 -29 14 -43 16 -14 17 -16 3 -11 -24 8 -23 -7 4 -35 l21 -23 17 22 c17
23 18 23 28 3 6 -11 10 -50 9 -87 -2 -60 -5 -70 -28 -89 -30 -25 -42 -78 -43
-187 -1 -58 -7 -77 -56 -175 -29 -60 -58 -111 -62 -113 -4 -2 -8 -18 -9 -35
-1 -32 -1 -32 -9 -6 -7 24 -34 61 -83 111 -22 23 -12 40 38 63 35 17 131 112
102 102 -11 -4 -16 -3 -12 4 4 6 -1 16 -11 23 -15 12 -22 11 -45 -6 -23 -17
-29 -18 -48 -6 -17 10 -21 20 -19 45 3 22 -1 34 -11 38 -19 7 -4 20 32 29 24
6 29 3 38 -23 13 -36 33 -45 51 -24 11 14 11 16 -4 10 -15 -5 -17 -1 -12 36 5
33 1 51 -14 76 l-21 34 26 49 c14 26 29 48 34 48 17 0 9 39 -13 65 -17 19 -36
27 -75 32 -49 5 -53 8 -54 32 l-1 26 -8 -25 c-8 -25 -8 -25 -9 -2 -1 13 -6 32
-11 42 -8 15 -3 25 27 53 26 25 34 40 29 53 -6 16 -8 16 -16 4 -8 -12 -10 -9
-10 11 0 25 1 26 42 19 24 -5 46 -6 50 -4z m-402 -776 c0 -5 -4 -10 -9 -10
-11 0 2 -61 30 -135 24 -64 112 -237 173 -340 30 -52 41 -80 41 -111 0 -23 -3
-40 -7 -38 -4 3 -11 -3 -16 -12 -7 -12 -11 -13 -17 -5 -5 9 -10 9 -20 1 -7 -6
-15 -7 -18 -3 -79 134 -234 475 -247 543 -11 60 -8 70 20 63 13 -3 20 0 20 8
0 12 2 12 9 0 7 -11 10 -11 17 0 4 8 3 14 -5 17 -9 3 -9 7 0 18 13 16 29 18
29 4z"/>
<path d="M5368 2132 l-168 -2 0 -182 c0 -100 2 -179 5 -177 2 3 11 32 18 64
l13 59 55 11 c62 12 179 79 187 107 3 13 14 18 38 18 33 0 57 16 79 54 6 9 28
23 50 31 25 9 33 15 20 15 -56 4 -146 5 -297 2z"/>
<path d="M5794 2132 l-41 -3 8 -49 c4 -28 11 -55 15 -61 3 -6 -3 -23 -13 -38
-31 -41 -73 -135 -73 -163 0 -47 14 -38 32 21 20 65 62 111 103 111 12 0 42
-7 65 -15 23 -8 54 -12 68 -8 20 5 24 3 19 -10 -3 -8 3 -23 14 -33 10 -9 19
-22 19 -28 0 -6 -4 -5 -9 3 -5 8 -11 9 -15 3 -3 -6 -1 -14 5 -18 16 -9 -10
-24 -36 -20 -11 2 -14 1 -7 -1 8 -3 11 -11 8 -19 -4 -10 3 -14 22 -15 24 0 22
-2 -14 -15 -43 -15 -57 -34 -72 -96 -7 -25 -6 -40 1 -47 14 -14 -6 -30 -38
-32 -17 -1 -16 -2 4 -8 32 -9 37 -50 7 -53 -12 -1 -28 -2 -36 -3 -8 0 -21 -4
-28 -8 -20 -13 -14 27 9 57 12 15 18 30 15 33 -6 7 -26 -16 -46 -53 -9 -16 -8
-32 3 -70 l14 -49 7 33 c7 31 10 32 44 27 25 -3 31 -2 18 3 -28 12 -7 20 29
11 20 -4 23 -7 10 -8 -17 -1 -17 -3 -5 -11 12 -8 13 -13 3 -29 -11 -17 -10
-22 7 -31 11 -6 20 -16 20 -23 0 -8 -4 -7 -10 3 -8 13 -13 12 -36 -6 -36 -26
-41 -44 -15 -51 27 -7 27 -37 0 -64 -17 -17 -23 -19 -30 -8 -7 12 -9 12 -9 0
0 -8 15 -28 33 -44 l33 -31 -29 -26 c-29 -26 -54 -112 -27 -95 9 5 11 2 7 -11
-4 -11 -9 -31 -13 -46 -14 -60 -22 -21 -26 130 -5 153 -6 159 -42 252 -21 52
-46 102 -57 110 -14 11 -19 25 -17 50 3 37 -1 39 -51 24 -19 -6 -22 -4 -15 7
4 8 7 24 5 37 -2 18 2 23 16 20 16 -3 18 5 21 62 3 65 3 65 -30 79 -18 8 -39
23 -46 33 -19 26 -55 22 -147 -13 -66 -25 -92 -42 -147 -97 -99 -97 -98 -94
-98 -341 0 -116 2 -211 5 -211 11 0 56 57 94 120 22 36 48 74 58 85 25 27 113
135 138 168 11 16 29 27 42 27 35 0 30 -47 -10 -92 -17 -20 -43 -53 -57 -73
-14 -19 -35 -48 -48 -63 -84 -98 -162 -219 -162 -248 0 -13 84 -78 140 -108
19 -10 38 -24 42 -30 4 -6 8 -67 8 -136 l0 -125 -52 -13 c-29 -7 -86 -28 -125
-47 l-73 -34 0 -246 0 -245 275 0 c151 0 275 2 275 4 0 19 -78 162 -87 159 -6
-2 -15 6 -19 19 -4 13 -16 29 -26 37 -11 7 -17 19 -14 26 3 8 0 16 -7 19 -9 3
-9 7 1 14 10 7 10 11 -3 22 -12 10 -15 10 -15 -3 0 -23 -37 -9 -44 16 -3 12
-13 92 -21 177 -9 85 -22 211 -30 280 -20 161 -21 236 -5 255 17 20 38 19 43
-2 2 -10 3 -6 2 10 -1 15 2 27 7 27 5 0 40 18 79 40 76 43 100 50 78 23 -22
-26 -16 -244 10 -381 31 -158 30 -156 82 -159 l44 -2 -25 19 c-14 11 -28 20
-32 20 -5 0 -8 9 -8 20 0 11 -5 17 -12 15 -8 -3 -14 4 -14 17 -1 13 -5 34 -10
48 -7 23 -6 24 10 11 16 -13 17 -12 11 15 -7 31 -15 54 -35 96 -7 15 -10 34
-6 44 4 10 2 41 -4 69 -8 40 -8 60 4 93 9 24 11 42 5 42 -6 0 -5 8 1 21 7 11
9 23 6 26 -3 3 11 14 30 25 37 20 62 16 33 -6 -23 -16 -17 -181 10 -296 77
-331 102 -438 106 -460 3 -14 10 -36 15 -50 18 -49 61 -232 56 -244 -2 -6 -5
-3 -5 6 -1 9 -6 20 -13 24 -8 5 -9 -6 -4 -42 4 -33 3 -45 -4 -38 -14 14 -50
118 -50 144 0 11 -7 20 -15 20 -13 0 -20 19 -16 43 1 5 -3 6 -9 2 -18 -11 -10
15 11 36 15 15 18 24 10 32 -6 6 -11 19 -11 28 0 9 -7 22 -15 29 -17 14 -19 7
-5 -20 7 -13 7 -21 -2 -26 -6 -4 -8 -3 -5 3 4 6 0 13 -8 17 -10 4 -15 -1 -16
-17 -1 -21 -1 -20 -8 3 -7 24 -7 24 -14 -7 -5 -24 -12 -33 -27 -33 -11 0 -20
-6 -20 -14 0 -7 -17 -21 -37 -29 l-38 -17 40 4 c22 3 32 2 23 0 -19 -6 -25
-34 -8 -34 6 0 25 7 42 16 36 19 40 15 63 -56 10 -30 31 -82 47 -117 l30 -63
272 0 271 0 54 56 c29 30 56 53 58 50 3 -3 -2 -12 -11 -22 -10 -9 -14 -24 -11
-35 7 -21 -10 -27 -18 -6 -3 7 -6 5 -6 -5 -1 -23 29 -38 74 -38 30 0 36 3 31
16 -3 9 -6 462 -6 1007 l0 992 -387 0 c-214 0 -406 -1 -429 -3z m312 -834
c-25 -53 -66 -160 -93 -239 l-48 -144 -6 75 c-7 81 2 120 26 120 28 0 15 27
-31 67 l-45 40 101 68 c56 38 109 78 118 91 9 12 18 21 20 19 1 -1 -18 -45
-42 -97z"/>
<path d="M4110 1990 c-8 -5 -27 -10 -41 -10 -15 0 -32 -7 -40 -16 -7 -8 -30
-24 -50 -35 -23 -11 -52 -40 -75 -75 -36 -54 -37 -56 -31 -128 4 -41 11 -85
16 -100 6 -14 13 -56 17 -93 4 -42 13 -78 25 -95 22 -32 26 -51 4 -22 -13 16
-14 16 -9 2 4 -12 1 -18 -9 -18 -23 0 -29 -17 -15 -40 17 -26 33 -25 52 2 14
19 16 20 16 5 0 -10 -5 -27 -10 -38 -9 -16 -7 -19 9 -19 43 0 64 -98 43 -200
l-9 -45 -2 39 c-1 36 -2 38 -18 25 -10 -8 -39 -25 -65 -38 l-48 -22 0 -67 c0
-62 23 -209 50 -327 7 -27 12 -61 12 -75 0 -29 25 -73 37 -65 5 2 11 -4 14
-15 3 -12 0 -20 -7 -20 -13 0 -56 53 -56 70 0 5 -6 10 -14 10 -9 0 -16 -17
-20 -45 -7 -45 -36 -89 -44 -66 -2 7 4 18 13 25 10 7 15 22 13 37 -4 23 -6 22
-56 -28 -29 -29 -55 -53 -58 -53 -6 0 28 53 39 61 5 3 -1 60 -13 125 -25 136
-51 345 -44 355 11 19 -18 16 -63 -6 -83 -40 -83 -39 -82 -183 0 -80 -5 -160
-16 -217 -21 -109 -29 -271 -20 -382 l7 -83 195 0 c194 0 194 0 188 21 -5 13
-2 25 6 31 10 6 7 7 -10 3 -16 -5 -22 -3 -19 5 5 16 48 33 48 20 0 -18 40 -11
70 12 34 25 35 24 70 -40 l25 -47 93 -3 93 -3 -52 101 c-38 74 -54 98 -61 88
-7 -9 -8 -5 -4 12 6 29 -7 56 -23 46 -6 -4 -14 1 -18 11 -6 16 -8 15 -15 -7
-6 -21 -7 -20 -3 7 2 18 0 35 -5 38 -15 9 -8 54 7 48 7 -3 13 0 13 6 0 6 -3
11 -8 11 -10 0 -38 84 -47 139 -4 24 -13 58 -20 76 -17 38 -9 52 29 51 20 -1
33 5 44 24 9 14 19 27 23 30 9 8 83 120 113 173 43 75 15 55 -44 -31 -48 -72
-56 -79 -87 -80 -27 -1 -36 4 -45 23 -6 14 -19 27 -30 30 -19 7 -26 55 -8 55
6 0 15 11 20 25 6 15 17 25 30 25 11 0 20 6 20 13 0 9 3 8 9 -2 6 -9 11 -10
15 -2 4 6 15 11 25 11 10 0 27 8 38 18 21 18 15 33 -17 44 -15 5 66 58 88 58
7 0 12 5 12 10 0 6 5 10 10 10 6 0 8 -12 4 -27 -4 -22 -3 -25 5 -13 9 12 13
13 20 2 12 -20 52 66 45 95 -4 13 1 41 10 63 9 22 16 57 16 76 0 38 26 104 41
104 5 0 9 8 9 18 0 9 9 31 19 48 10 17 24 55 30 85 16 76 25 86 40 44 8 -24 9
-45 3 -69 -6 -20 -7 -64 -2 -108 5 -40 6 -92 3 -115 -5 -35 -3 -43 11 -43 14
0 16 27 15 283 -1 155 -4 273 -6 262 -7 -28 -23 -46 -35 -38 -7 4 -8 -10 -4
-40 8 -54 -2 -64 -37 -37 -16 13 -28 35 -32 62 -10 59 -23 75 -72 90 -28 8
-42 17 -39 25 6 16 -6 17 -21 2 -8 -8 -13 -5 -18 10 -9 30 -37 42 -72 32 -17
-5 -36 -5 -44 0 -19 12 -90 11 -109 -1z m191 -282 c23 -19 39 -42 43 -61 15
-77 16 -74 -10 -69 -14 2 -45 -3 -69 -13 -96 -36 -25 -101 86 -79 47 10 49 10
49 -12 0 -12 -6 -24 -12 -27 -10 -3 -10 -8 -2 -17 9 -9 8 -18 -2 -38 -11 -22
-11 -29 -1 -37 15 -12 21 -45 9 -45 -6 0 -13 -11 -16 -25 -5 -20 -36 -48 -56
-50 -3 0 -20 -11 -38 -25 -35 -26 -77 -28 -117 -8 -43 23 -47 58 -6 58 35 0
111 33 134 58 16 18 16 19 -6 31 -13 7 -37 12 -53 10 -54 -4 -94 1 -94 12 0 7
11 9 30 6 16 -4 32 -2 36 4 3 6 19 8 35 5 33 -6 35 -4 13 18 -11 11 -21 13
-33 7 -28 -15 -45 3 -38 41 10 63 -1 85 -53 109 -46 21 -69 52 -48 65 5 4 7
26 4 50 -5 49 5 57 73 56 21 0 43 3 51 8 20 13 48 3 91 -32z"/>
<path d="M5684 653 c-10 -49 -14 -55 -33 -60 -16 -4 -18 -10 -11 -34 10 -34 9
-35 -18 -11 -14 13 -18 22 -11 29 6 6 5 10 -6 10 -21 0 -19 -29 5 -50 11 -9
20 -24 20 -32 0 -8 4 -15 9 -15 5 0 11 -7 15 -15 8 -21 -28 -19 -50 3 -17 16
-18 16 -11 -1 4 -10 7 -21 7 -23 0 -3 5 -2 10 1 6 3 10 -2 10 -13 0 -25 10
-34 26 -21 8 7 14 7 19 -1 3 -5 1 -10 -5 -10 -6 0 -8 -5 -5 -10 4 -6 12 -7 18
-3 7 4 21 6 31 4 14 -2 17 2 13 13 -4 9 -2 16 3 16 6 0 10 5 10 10 0 6 -7 10
-15 10 -8 0 -15 -7 -15 -15 0 -20 -10 -19 -25 2 -13 18 -9 43 7 43 5 0 6 -4 3
-10 -11 -18 11 -11 30 10 19 21 35 18 35 -5 0 -9 -6 -12 -17 -9 -15 5 -16 4
-3 -5 32 -23 37 -13 33 59 -3 58 -1 70 12 70 18 0 20 -16 3 -24 -7 -3 -4 -4 7
-3 11 2 19 9 18 15 -2 7 2 12 8 12 5 0 7 5 4 10 -4 6 -11 8 -16 5 -5 -4 -9 1
-9 9 0 9 -4 16 -10 16 -5 0 -9 -5 -7 -11 1 -6 -10 -13 -26 -14 -17 -2 -25 0
-21 7 4 7 -1 8 -16 3 -20 -6 -22 -5 -15 11 15 38 17 54 6 54 -6 0 -13 -12 -17
-27z"/>
</g>
</svg>
