<?xml version="1.0" encoding="iso-8859-1"?>
<!-- Generator: Adobe Illustrator 16.0.0, SVG Export Plug-In . SVG Version: 6.00 Build 0)  -->
<!DOCTYPE svg PUBLIC "-//W3C//DTD SVG 1.1//EN" "http://www.w3.org/Graphics/SVG/1.1/DTD/svg11.dtd">
<svg version="1.1" id="Capa_1" xmlns="http://www.w3.org/2000/svg" xmlns:xlink="http://www.w3.org/1999/xlink" x="0px" y="0px"
	 width="124.022px" height="124.021px" viewBox="0 0 124.022 124.021" style="enable-background:new 0 0 124.022 124.021;"
	 xml:space="preserve">
<g>
	<g>
		<circle cx="61.494" cy="10.229" r="10.229"/>
		<path d="M65.491,31.062h2.552c0.821,0,1.54,0.471,1.878,1.188c5.063,1.946,6.262,8.148,6.502,12.037h5.534
			c-2.409-11.194-8.725-20.307-17.772-23.291l-2.549,2.566l-2.47-2.594c-0.01,0.003-0.018,0.003-0.026,0.005
			c-1.264,0.302-14.562,6.196-17.455,23.313h8.157c0.417-1.732,0.856-3.255,1.324-4.576v4.576h21.98
			c0.059-2.547-0.861-4.973-1.018-5.364c0.031,0.085-1.281-3.005-3.418-3.819c-0.216,0.076-0.439,0.114-0.668,0.114H65.49
			c-1.146,0-2.078-0.932-2.078-2.078C63.412,31.995,64.344,31.062,65.491,31.062z M64.125,40.432l-2.467,3.376h-0.049l-2.466-3.376
			l2.466-16.489h0.049L64.125,40.432z"/>
		<rect x="37.512" y="45.371" width="48.616" height="5.295"/>
		<path d="M80.287,73.697l1.841-21.829H41.512l1.893,22.44c2.649,2.438,4.322,5.919,4.322,9.792c0,2.856-0.921,5.491-2.46,7.661
			h2.958c-0.068-0.546-0.106-1.102-0.106-1.668c0-7.344,5.974-13.318,13.316-13.318c7.342,0,13.318,5.975,13.318,13.318
			c0,0.566-0.044,1.121-0.113,1.668h3.062c-1.535-2.167-2.439-4.809-2.439-7.661C75.262,79.893,77.229,76.14,80.287,73.697z"/>
		<circle cx="34.602" cy="83.971" r="10.229"/>
		<circle cx="88.77" cy="83.972" r="10.228"/>
		<path d="M91.459,94.74l-2.549,2.564l-2.471-2.593c-0.01,0.002-0.018,0.002-0.024,0.004c-0.919,0.221-8.188,3.397-13.204,11.679
			c-2.548-2.594-5.531-4.554-8.896-5.662l-2.549,2.565l-2.471-2.593c-0.01,0.002-0.016,0.002-0.025,0.005
			c-0.655,0.155-4.542,1.819-8.537,5.765c-3.233-5.639-7.808-9.877-13.443-11.734l-2.55,2.564l-2.47-2.593
			c-0.01,0.002-0.018,0.002-0.026,0.004c-1.264,0.303-14.562,6.196-17.455,23.313h8.157c0.417-1.732,0.857-3.254,1.324-4.576v4.576
			h19.108c-0.659,1.824-1.195,3.816-1.564,5.992h8.158c0.416-1.732,0.856-3.255,1.324-4.574v4.574h21.311v-4.574
			c0.467,1.319,0.908,2.842,1.322,4.574h2.623h5.535c-0.447-2.078-1.031-4.083-1.74-5.992H99.75v-4.576
			c0.469,1.322,0.907,2.844,1.324,4.576h2.622h5.535C106.824,106.836,100.508,97.722,91.459,94.74z M34.765,117.55h-0.048
			l-2.466-3.375l2.466-16.49h0.048l2.468,16.49L34.765,117.55z M61.792,123.543h-0.049l-2.465-3.375l2.465-16.49h0.049l2.469,16.49
			L61.792,123.543z M88.936,117.55h-0.049l-2.467-3.375l2.467-16.49h0.049l2.467,16.49L88.936,117.55z"/>
		<circle cx="61.627" cy="89.964" r="10.229"/>
	</g>
</g>
<g>
</g>
<g>
</g>
<g>
</g>
<g>
</g>
<g>
</g>
<g>
</g>
<g>
</g>
<g>
</g>
<g>
</g>
<g>
</g>
<g>
</g>
<g>
</g>
<g>
</g>
<g>
</g>
<g>
</g>
</svg>
